<svg width="20" height="20" viewBox="0 0 20 20" fill="none" xmlns="http://www.w3.org/2000/svg">
<path d="M0.833008 0.833374H4.16634L6.39967 11.9917C6.47588 12.3754 6.6846 12.72 6.9893 12.9653C7.29399 13.2106 7.67526 13.3409 8.06634 13.3334H16.1663C16.5574 13.3409 16.9387 13.2106 17.2434 12.9653C17.5481 12.72 17.7568 12.3754 17.833 11.9917L19.1663 5.00004H4.99967M8.33301 17.5C8.33301 17.9603 7.95991 18.3334 7.49967 18.3334C7.03944 18.3334 6.66634 17.9603 6.66634 17.5C6.66634 17.0398 7.03944 16.6667 7.49967 16.6667C7.95991 16.6667 8.33301 17.0398 8.33301 17.5ZM17.4997 17.5C17.4997 17.9603 17.1266 18.3334 16.6663 18.3334C16.2061 18.3334 15.833 17.9603 15.833 17.5C15.833 17.0398 16.2061 16.6667 16.6663 16.6667C17.1266 16.6667 17.4997 17.0398 17.4997 17.5Z" stroke="#F8F6F0" stroke-linecap="round" stroke-linejoin="round"/>
</svg>
