<svg width="74" height="50" viewBox="0 0 74 50" fill="none" xmlns="http://www.w3.org/2000/svg">
<path d="M32.9044 5.75076C31.8422 6.74406 31.1147 9.01724 31.4401 9.18055C31.7655 9.34387 32.6439 7.30442 33.7179 6.40406C34.8311 5.47087 36.9719 4.9342 36.9719 4.6075C36.9719 4.36139 34.1114 4.62207 32.9044 5.75076Z" fill="#F8F6F0"/>
<path d="M34.206 14.5703C33.2829 14.1723 32.4163 12.937 32.0909 13.1004C31.7655 13.2637 33.0104 14.8974 34.0433 15.5502C35.1928 16.2766 36.1018 16.3842 37.46 16.3668C38.5568 16.3528 39.3505 16.2586 40.3886 15.7135C42.033 14.8501 43.1545 12.937 43.3172 11.9571C43.4799 10.9772 43.4799 10.1605 43.3172 9.1806C43.1459 8.14874 42.0156 6.47991 41.6902 6.56743C41.3648 6.65495 42.1783 7.71069 42.341 9.67057C42.4695 11.2184 41.9468 12.6104 41.2021 13.427C40.1262 14.6069 39.2083 14.9008 37.6227 15.0602C36.3441 15.1888 35.3867 15.0793 34.206 14.5703Z" fill="#F8F6F0"/>
<path d="M27.217 3.97602C26.1761 4.11776 25.1026 5.33435 24.7773 5.21626C24.2893 5.03912 24.9399 4.15316 25.5905 3.62164C26.2411 3.09013 26.5664 2.91291 27.705 2.91291C28.8435 2.91291 29.1688 3.26729 30.47 3.26729C31.7712 3.26729 32.7471 2.73575 33.5604 1.84987C34.3736 0.963977 35.1985 0.445967 35.9959 0.197765C37.1345 -0.156605 38.7621 0.00672333 39.4127 0.361079C40.0632 0.715434 40.7169 1.14116 41.0422 1.49551C41.3675 1.84987 41.782 2.32098 42.504 2.32098C43.4802 2.32098 43.4802 2.15765 44.4564 2.15765C45.3405 2.15765 45.9209 2.2794 46.7342 2.81094C47.5474 3.34247 48.0362 3.09011 48.6868 3.62164C49.3374 4.15318 49.5001 4.70155 49.5001 5.58744C49.5001 6.47333 49.3373 7.54732 49.012 7.54732C48.6867 7.54732 48.6866 5.77847 48.6866 5.42412C48.6866 5.06976 48.5655 4.37994 47.8731 4.11752C47.3845 3.93238 47.0592 4.00856 46.5723 3.97602C46.2461 3.95421 46.0832 3.65526 45.5953 3.30091C45.1446 2.97366 44.6401 2.97411 44.4667 2.97426L44.4564 2.97427C44.2937 2.97427 43.8056 2.97427 43.4802 3.13759C43.153 3.30179 42.7265 3.62162 42.3434 3.62163C41.3651 3.62164 41.0395 3.17913 40.5516 2.64761C39.8809 1.9171 39.412 1.34098 37.4602 1.34098C35.5085 1.34098 34.6989 2.3814 33.8857 3.26729C33.0724 4.15318 31.7712 4.50755 30.47 4.50755C29.1688 4.50755 28.5182 3.79884 27.217 3.97602Z" fill="#F8F6F0"/>
<path d="M26.7376 5.57934C26.2563 5.73179 25.8899 5.1308 25.775 5.27445C25.6602 5.41809 25.8858 5.83047 26.378 5.94741C26.9165 6.07536 27.3565 5.88392 27.5169 5.78418C27.7123 5.66272 28.0234 5.42399 28.0234 4.93408C28.0234 4.59317 27.4375 4.39059 27.2099 4.77074C27.0221 5.08449 27.1655 5.4438 26.7376 5.57934Z" fill="#F8F6F0"/>
<path d="M26.8817 6.51725C25.9553 6.61847 25.6384 6.45873 25.5305 6.61103C25.4225 6.76333 25.6877 7.15714 26.3909 7.20065C27.2101 7.25134 27.7722 7.14345 28.349 6.73087C28.9258 6.31828 29.3275 5.44405 29.1648 5.28155C29.1028 5.21963 29.0187 5.32768 28.5117 5.75133C27.8978 6.2643 27.1797 6.48468 26.8817 6.51725Z" fill="#F8F6F0"/>
<path d="M25.2577 15.06C25.2577 13.8724 24.9765 13.1001 24.7696 13.1001C24.4442 13.1001 24.4442 14.8967 24.6069 16.3666C24.7696 17.8365 25.9085 17.9998 26.5593 17.9998C27.871 17.9998 29.976 17.8365 31.2776 17.6731C32.5792 17.5098 37.9483 17.5098 39.5753 17.5098C42.6666 17.5098 46.246 17.9998 48.3611 17.9998C49.3379 17.9998 49.3375 17.2043 49.3373 16.8695L49.3373 16.8565V16.8565C49.3373 16.5298 49.3373 15.06 49.0119 15.06C48.6865 15.06 48.8492 15.8766 48.8492 16.2032C48.8492 16.5299 48.6865 16.8565 48.1984 17.0199C47.7103 17.1832 44.7817 16.6932 42.3412 16.5299C39.9007 16.3666 33.0673 16.3666 31.2776 16.5299C29.4879 16.6932 27.6982 17.0199 26.5593 16.8565C25.4204 16.6932 25.2577 16.2476 25.2577 15.06Z" fill="#F8F6F0"/>
<path d="M54.3455 49.8112V49.8334H51.4525V49.8112C51.7752 49.023 51.9087 48.5679 51.9087 47.4911V41.9406L51.3635 41.9739C50.707 42.0405 49.6833 43.6724 49.0936 44.5715L48.9712 44.5382L49.4608 41.7075H56.3372L56.8268 44.5382L56.7044 44.5715C56.1147 43.6724 55.091 42.0405 54.4345 41.9739L53.9004 41.9406V47.4911C53.9004 48.5568 54.0228 49.023 54.3455 49.8112Z" fill="#F8F6F0"/>
<path d="M40.0176 49.8334V49.8112C40.3403 49.023 40.4627 48.5679 40.4627 47.4911V44.0498C40.4627 42.9619 40.3403 42.5179 40.0176 41.7297V41.7075H42.9106V41.7297C42.5879 42.5179 42.4544 42.9841 42.4544 44.0498V45.5595H45.6478V44.0498C45.6478 42.973 45.5254 42.5179 45.1916 41.7297V41.7075H48.0846V41.7297C47.7731 42.5179 47.6396 42.9841 47.6396 44.0498V47.4911C47.6396 48.5568 47.7731 49.023 48.0846 49.8112V49.8334H45.1916V49.8112C45.5254 49.023 45.6478 48.5679 45.6478 47.4911V45.8148H42.4544V47.4911C42.4544 48.5568 42.5879 49.023 42.9106 49.8112V49.8334H40.0176Z" fill="#F8F6F0"/>
<path d="M38.6854 48.7566C38.2737 49.0896 37.1165 49.9999 35.1581 49.9999C32.4654 49.9999 30.7407 48.2682 30.7407 45.8704C30.7407 43.4615 32.4654 41.541 35.5253 41.541C36.7159 41.541 37.5727 41.7741 38.2626 41.9517L38.4851 44.0165L38.3627 44.0498C37.1721 42.4291 36.46 41.7963 35.3695 41.7963C33.5558 41.7963 32.8882 43.4837 32.8882 45.8593C32.8882 48.2904 33.567 49.7446 35.1804 49.7446C36.1484 49.7446 36.9273 49.2117 36.9607 48.0683C36.983 47.147 36.7493 46.7029 36.3265 46.1035V46.0813H39.1305V46.1035C38.8078 46.8916 38.6854 47.3579 38.6854 48.4236V48.7566Z" fill="#F8F6F0"/>
<path d="M26.8379 49.8334V49.8112C27.1606 49.023 27.283 48.579 27.283 47.4911V44.0498C27.283 42.9619 27.1606 42.5179 26.8379 41.7297V41.7075H29.7309V41.7297C29.4082 42.5179 29.2747 42.9841 29.2747 44.0498V47.4911C29.2747 48.5568 29.4082 49.023 29.7309 49.8112V49.8334H26.8379Z" fill="#F8F6F0"/>
<path d="M25.4577 49.8334H19.7051V49.8112C20.0278 49.023 20.1502 48.5679 20.1502 47.4911V44.0498C20.1502 42.9619 20.0278 42.5179 19.7051 41.7297V41.7075H22.587V41.7297C22.2643 42.5179 22.1419 42.9841 22.1419 44.0498V49.5892L23.4104 49.5114C24.1892 49.467 25.3576 48.1127 25.9139 47.2469L26.0363 47.2802L25.4577 49.8334Z" fill="#F8F6F0"/>
<path d="M72.8094 34.3257L67.3905 27.5763L67.435 31.8835C67.435 32.9714 67.6798 33.4487 68.2807 34.2702V34.2924H66.2778V34.2702C66.8676 33.4487 67.1012 32.9936 67.1012 31.8835V27.9426C67.0456 27.1656 66.8119 26.7882 66.289 26.1887V26.1665H68.7703L72.8872 31.3284L72.865 28.5976C72.8539 27.4764 72.6313 27.0213 72.0416 26.1887V26.1665H73.9999V26.1887C73.4325 27.0102 73.1877 27.4875 73.1877 28.5754V34.2813L72.8094 34.3257Z" fill="#F8F6F0"/>
<path d="M62.4383 30.9733L61.2811 27.6763L60.0794 30.9733H62.4383ZM60.2129 34.2703V34.2925H58.1655V34.2703C58.6329 33.8151 59.0223 33.1047 59.3561 32.1944L61.5481 26.1333H62.672L64.8973 32.2499C65.2089 33.1158 65.5427 33.7929 65.9322 34.2703V34.2925H62.6163V34.2703C63.0169 33.7596 63.1504 33.0048 62.8166 32.0501L62.5273 31.2286H59.9904L59.7901 31.7726C59.3339 33.027 59.6232 33.8373 60.2129 34.2703Z" fill="#F8F6F0"/>
<path d="M54.5503 34.2924V34.2702C54.873 33.482 54.9954 33.038 54.9954 31.9501V28.5088C54.9954 27.4209 54.873 26.9769 54.5503 26.1887V26.1665H57.4433V26.1887C57.1206 26.9769 56.9871 27.4431 56.9871 28.5088V31.9501C56.9871 33.0158 57.1206 33.482 57.4433 34.2702V34.2924H54.5503Z" fill="#F8F6F0"/>
<path d="M53.1696 34.2924H47.417V34.2702C47.7397 33.482 47.8621 33.0269 47.8621 31.9501V28.5088C47.8621 27.4209 47.7397 26.9769 47.417 26.1887V26.1665H50.2989V26.1887C49.9762 26.9769 49.8538 27.4431 49.8538 28.5088V34.0481L51.1223 33.9704C51.9012 33.926 53.0695 32.5717 53.6258 31.7059L53.7482 31.7392L53.1696 34.2924Z" fill="#F8F6F0"/>
<path d="M43.2005 30.9733L42.0433 27.6763L40.8416 30.9733H43.2005ZM40.9751 34.2703V34.2925H38.9277V34.2703C39.3951 33.8151 39.7845 33.1047 40.1183 32.1944L42.3103 26.1333H43.4342L45.6596 32.2499C45.9711 33.1158 46.3049 33.7929 46.6944 34.2703V34.2925H43.3785V34.2703C43.7791 33.7596 43.9126 33.0048 43.5788 32.0501L43.2895 31.2286H40.7526L40.5523 31.7726C40.0961 33.027 40.3854 33.8373 40.9751 34.2703Z" fill="#F8F6F0"/>
<path d="M34.1552 26.4107C34.0216 26.4107 33.8102 26.4107 33.5877 26.4218V30.2738H34.1997C35.4348 30.2738 35.7686 29.2081 35.7686 28.198C35.7686 27.2211 35.4014 26.4107 34.1552 26.4107ZM31.1509 34.2924V34.2702C31.4736 33.482 31.596 33.0269 31.596 31.9501V28.5088C31.596 27.4209 31.4736 26.9769 31.1509 26.1887V26.1665H34.6336C37.0148 26.1665 37.8048 26.9658 37.8048 28.1647C37.8048 29.0416 37.382 29.8187 36.3138 30.2294L37.5711 32.7826C37.9495 33.5597 38.1942 33.926 38.784 34.248V34.2924H36.1246L34.3221 30.5292H33.5877V31.9501C33.5877 33.0158 33.7101 33.482 34.0328 34.2702V34.2924H31.1509Z" fill="#F8F6F0"/>
<path d="M27.7776 34.2702V34.2924H24.8846V34.2702C25.2073 33.482 25.3408 33.0269 25.3408 31.9501V26.3996L24.7956 26.4329C24.1391 26.4995 23.1154 28.1314 22.5257 29.0305L22.4033 28.9972L22.8929 26.1665H29.7694L30.259 28.9972L30.1366 29.0305C29.5468 28.1314 28.5232 26.4995 27.8667 26.4329L27.3326 26.3996V31.9501C27.3326 33.0158 27.455 33.482 27.7776 34.2702Z" fill="#F8F6F0"/>
<path d="M21.1729 26.2664L21.4733 28.3756L21.3509 28.4089C20.483 26.9658 19.693 26.2553 18.8696 26.2553C18.2131 26.2553 17.7124 26.6883 17.7124 27.3321C17.7124 28.2313 18.7138 28.6198 19.7486 29.1305C20.8391 29.6855 21.9851 30.3738 21.9851 31.9723C21.9851 33.8039 20.5275 34.4589 18.903 34.4589C17.9794 34.4589 17.0781 34.2369 16.4773 33.9593L16.188 31.6948L16.2993 31.6615C17.3786 33.4376 18.2131 34.2036 19.2145 34.2036C20.0936 34.2036 20.5831 33.6263 20.5831 32.9159C20.5831 31.939 19.6373 31.4838 18.6359 30.9954C17.501 30.4293 16.3549 29.8076 16.3549 28.3201C16.3549 26.6216 17.8348 26 19.4148 26C20.0379 26 20.6499 26.0999 21.1729 26.2664Z" fill="#F8F6F0"/>
<path d="M11.7431 34.4589C9.81816 34.4589 8.41617 33.5486 8.41617 31.3173V28.5088C8.41617 27.4209 8.29377 26.9769 7.95996 26.1887V26.1665H10.8752V26.1887C10.5637 26.9325 10.419 27.4209 10.419 28.5088V31.4172C10.419 33.371 11.209 34.0592 12.3329 34.0592C13.8461 34.0592 14.3468 32.7937 14.3468 31.2507V28.5976C14.3468 27.4764 14.0909 26.9991 13.4122 26.1887V26.1665H15.5819L15.6042 26.1887C14.9477 27.0102 14.6695 27.4875 14.6695 28.5976V31.173C14.6695 33.0602 14.1132 34.4589 11.7431 34.4589Z" fill="#F8F6F0"/>
<path d="M4.27276 30.9733L3.11555 27.6763L1.91384 30.9733H4.27276ZM2.04736 34.2703V34.2925H0V34.2703C0.467333 33.8151 0.856776 33.1047 1.19059 32.1944L3.3826 26.1333H4.50642L6.73181 32.2499C7.04337 33.1158 7.37718 33.7929 7.76662 34.2703V34.2925H4.45079V34.2703C4.85136 33.7596 4.98488 33.0048 4.65107 32.0501L4.36177 31.2286H1.82482L1.62454 31.7726C1.16833 33.027 1.45763 33.8373 2.04736 34.2703Z" fill="#F8F6F0"/>
</svg>
