<svg width="70" height="52" viewBox="0 0 70 52" fill="none" xmlns="http://www.w3.org/2000/svg">
<path d="M51.4081 51.8219V51.8429H48.6714V51.8219C48.9767 51.0783 49.103 50.6489 49.103 49.633V44.3963L48.5872 44.4278C47.9662 44.4906 46.9979 46.0302 46.44 46.8785L46.3242 46.8471L46.7873 44.1764H53.2921L53.7553 46.8471L53.6395 46.8785C53.0816 46.0302 52.1133 44.4906 51.4923 44.4278L50.987 44.3963V49.633C50.987 50.6384 51.1028 51.0783 51.4081 51.8219Z" fill="#F8F6F0"/>
<path d="M37.8555 51.8429V51.8219C38.1607 51.0783 38.2765 50.6489 38.2765 49.633V46.3863C38.2765 45.3599 38.1607 44.9409 37.8555 44.1973V44.1764H40.5921V44.1973C40.2869 44.9409 40.1606 45.3808 40.1606 46.3863V47.8106H43.1814V46.3863C43.1814 45.3703 43.0656 44.9409 42.7499 44.1973V44.1764H45.4865V44.1973C45.1918 44.9409 45.0655 45.3808 45.0655 46.3863V49.633C45.0655 50.6384 45.1918 51.0783 45.4865 51.8219V51.8429H42.7499V51.8219C43.0656 51.0783 43.1814 50.6489 43.1814 49.633V48.0515H40.1606V49.633C40.1606 50.6384 40.2869 51.0783 40.5921 51.8219V51.8429H37.8555Z" fill="#F8F6F0"/>
<path d="M36.5943 50.8269C36.2049 51.1411 35.1102 51.9999 33.2577 51.9999C30.7106 51.9999 29.0791 50.3661 29.0791 48.1039C29.0791 45.8312 30.7106 44.0193 33.6051 44.0193C34.7313 44.0193 35.5418 44.2392 36.1944 44.4068L36.4049 46.3548L36.2891 46.3863C35.1629 44.8572 34.4892 44.2602 33.4577 44.2602C31.7421 44.2602 31.1105 45.8521 31.1105 48.0934C31.1105 50.3871 31.7526 51.7591 33.2788 51.7591C34.1945 51.7591 34.9313 51.2563 34.9629 50.1776C34.9839 49.3083 34.7629 48.8894 34.3629 48.3238V48.3029H37.0154V48.3238C36.7101 49.0674 36.5943 49.5073 36.5943 50.5127V50.8269Z" fill="#F8F6F0"/>
<path d="M25.3877 51.8429V51.8219C25.6929 51.0783 25.8087 50.6594 25.8087 49.633V46.3863C25.8087 45.3599 25.6929 44.9409 25.3877 44.1973V44.1764H28.1243V44.1973C27.8191 44.9409 27.6928 45.3808 27.6928 46.3863V49.633C27.6928 50.6384 27.8191 51.0783 28.1243 51.8219V51.8429H25.3877Z" fill="#F8F6F0"/>
<path d="M24.0814 51.8429H18.6396V51.8219C18.9449 51.0783 19.0607 50.6489 19.0607 49.633V46.3863C19.0607 45.3599 18.9449 44.9409 18.6396 44.1973V44.1764H21.3658V44.1973C21.0605 44.9409 20.9447 45.3808 20.9447 46.3863V51.6124L22.1447 51.5391C22.8814 51.4972 23.9866 50.2195 24.5129 49.4026L24.6287 49.434L24.0814 51.8429Z" fill="#F8F6F0"/>
<path d="M68.8738 37.2117L63.7479 30.8439L63.79 34.9075C63.79 35.9339 64.0215 36.3843 64.5899 37.1593V37.1803H62.6953V37.1593C63.2532 36.3843 63.4742 35.9549 63.4742 34.9075V31.1895C63.4216 30.4564 63.2005 30.1003 62.7058 29.5347V29.5138H65.053L68.9475 34.3839L68.9264 31.8074C68.9159 30.7496 68.7054 30.3202 68.1475 29.5347V29.5138H70V29.5347C69.4632 30.3098 69.2317 30.7601 69.2317 31.7865V37.1698L68.8738 37.2117Z" fill="#F8F6F0"/>
<path d="M59.0633 34.0488L57.9686 30.9382L56.8319 34.0488H59.0633ZM56.9582 37.1594V37.1803H55.0215V37.1594C55.4636 36.7299 55.832 36.0597 56.1477 35.2008L58.2213 29.4824H59.2843L61.3894 35.2532C61.6842 36.0701 61.9999 36.709 62.3683 37.1594V37.1803H59.2317V37.1594C59.6106 36.6776 59.7369 35.9654 59.4212 35.0647L59.1475 34.2897H56.7477L56.5582 34.8029C56.1267 35.9863 56.4003 36.7509 56.9582 37.1594Z" fill="#F8F6F0"/>
<path d="M51.6025 37.1803V37.1593C51.9078 36.4157 52.0236 35.9968 52.0236 34.9704V31.7237C52.0236 30.6973 51.9078 30.2783 51.6025 29.5347V29.5138H54.3392V29.5347C54.0339 30.2783 53.9076 30.7182 53.9076 31.7237V34.9704C53.9076 35.9758 54.0339 36.4157 54.3392 37.1593V37.1803H51.6025Z" fill="#F8F6F0"/>
<path d="M50.2972 37.1803H44.8555V37.1593C45.1607 36.4157 45.2765 35.9863 45.2765 34.9704V31.7237C45.2765 30.6973 45.1607 30.2783 44.8555 29.5347V29.5138H47.5816V29.5347C47.2763 30.2783 47.1606 30.7182 47.1606 31.7237V36.9498L48.3605 36.8765C49.0973 36.8346 50.2024 35.5569 50.7287 34.74L50.8445 34.7714L50.2972 37.1803Z" fill="#F8F6F0"/>
<path d="M40.8651 34.0488L39.7704 30.9382L38.6336 34.0488H40.8651ZM38.7599 37.1594V37.1803H36.8232V37.1594C37.2653 36.7299 37.6337 36.0597 37.9495 35.2008L40.023 29.4824H41.0861L43.1912 35.2532C43.4859 36.0701 43.8017 36.709 44.1701 37.1594V37.1803H41.0335V37.1594C41.4124 36.6776 41.5387 35.9654 41.2229 35.0647L40.9493 34.2897H38.5494L38.36 34.8029C37.9284 35.9863 38.2021 36.7509 38.7599 37.1594Z" fill="#F8F6F0"/>
<path d="M32.3097 29.7442C32.1834 29.7442 31.9834 29.7442 31.7729 29.7547V33.3889H32.3518C33.5201 33.3889 33.8359 32.3835 33.8359 31.4304C33.8359 30.5088 33.4885 29.7442 32.3097 29.7442ZM29.4678 37.1803V37.1593C29.773 36.4157 29.8888 35.9863 29.8888 34.9704V31.7237C29.8888 30.6973 29.773 30.2783 29.4678 29.5347V29.5138H32.7623C35.0147 29.5138 35.7621 30.2679 35.7621 31.399C35.7621 32.2264 35.3621 32.9595 34.3516 33.347L35.541 35.7559C35.8989 36.489 36.1304 36.8346 36.6883 37.1384V37.1803H34.1727L32.4676 33.6298H31.7729V34.9704C31.7729 35.9758 31.8886 36.4157 32.1939 37.1593V37.1803H29.4678Z" fill="#F8F6F0"/>
<path d="M26.2772 37.1593V37.1803H23.5406V37.1593C23.8458 36.4157 23.9721 35.9863 23.9721 34.9704V29.7337L23.4564 29.7652C22.8353 29.828 21.867 31.3676 21.3091 32.2159L21.1934 32.1845L21.6565 29.5138H28.1613L28.6244 32.1845L28.5086 32.2159C27.9508 31.3676 26.9824 29.828 26.3614 29.7652L25.8562 29.7337V34.9704C25.8562 35.9758 25.972 36.4157 26.2772 37.1593Z" fill="#F8F6F0"/>
<path d="M20.0279 29.608L20.3121 31.598L20.1964 31.6294C19.3754 30.2679 18.628 29.5976 17.8492 29.5976C17.2281 29.5976 16.7545 30.006 16.7545 30.6135C16.7545 31.4618 17.7018 31.8284 18.6807 32.3102C19.7122 32.8338 20.7963 33.4832 20.7963 34.9913C20.7963 36.7194 19.4175 37.3373 17.8807 37.3373C17.0071 37.3373 16.1545 37.1279 15.5862 36.8661L15.3125 34.7295L15.4178 34.6981C16.4387 36.3738 17.2281 37.0965 18.1754 37.0965C19.007 37.0965 19.4701 36.5519 19.4701 35.8816C19.4701 34.9599 18.5754 34.5305 17.6281 34.0697C16.5545 33.5355 15.4704 32.949 15.4704 31.5456C15.4704 29.9432 16.8703 29.3567 18.3649 29.3567C18.9543 29.3567 19.5332 29.4509 20.0279 29.608Z" fill="#F8F6F0"/>
<path d="M11.108 37.3374C9.28706 37.3374 7.96084 36.4785 7.96084 34.3734V31.7237C7.96084 30.6973 7.84506 30.2783 7.5293 29.5347V29.5138H10.287V29.5347C9.99228 30.2365 9.85544 30.6973 9.85544 31.7237V34.4677C9.85544 36.311 10.6028 36.9603 11.6658 36.9603C13.0973 36.9603 13.571 35.7664 13.571 34.3106V31.8074C13.571 30.7496 13.3289 30.2993 12.6868 29.5347V29.5138H14.7393L14.7603 29.5347C14.1393 30.3098 13.8762 30.7601 13.8762 31.8074V34.2373C13.8762 36.0177 13.3499 37.3374 11.108 37.3374Z" fill="#F8F6F0"/>
<path d="M4.04181 34.0488L2.94715 30.9382L1.81039 34.0488H4.04181ZM1.9367 37.1594V37.1803H0V37.1594C0.442073 36.7299 0.810467 36.0597 1.12623 35.2008L3.19977 29.4824H4.26285L6.36796 35.2532C6.66267 36.0701 6.97844 36.709 7.34683 37.1594V37.1803H4.21022V37.1594C4.58914 36.6776 4.71545 35.9654 4.39968 35.0647L4.12601 34.2897H1.72619L1.53673 34.8029C1.10518 35.9863 1.37885 36.7509 1.9367 37.1594Z" fill="#F8F6F0"/>
<path d="M32.2877 6.02289C31.1697 7.0632 30.404 9.44396 30.7465 9.61501C31.089 9.78606 32.0135 7.65009 33.144 6.7071C34.3157 5.72975 36.569 5.16768 36.569 4.82552C36.569 4.56776 33.5582 4.84078 32.2877 6.02289Z" fill="#F8F6F0"/>
<path d="M33.6577 15.2598C32.6861 14.843 31.774 13.5493 31.4315 13.7203C31.089 13.8914 32.3993 15.6025 33.4865 16.2861C34.6964 17.047 35.6532 17.1596 37.0828 17.1414C38.2372 17.1267 39.0726 17.0281 40.1653 16.4572C41.8961 15.553 43.0765 13.5493 43.2478 12.523C43.419 11.4966 43.419 10.6414 43.2478 9.61506C43.0675 8.53436 41.8778 6.78654 41.5353 6.87821C41.1928 6.96988 42.049 8.07558 42.2203 10.1282C42.3555 11.7493 41.8053 13.2072 41.0215 14.0624C39.889 15.2982 38.9229 15.606 37.254 15.773C35.9082 15.9077 34.9005 15.7929 33.6577 15.2598Z" fill="#F8F6F0"/>
<path d="M26.301 4.1642C25.2053 4.31265 24.0754 5.58683 23.733 5.46315C23.2194 5.27762 23.9042 4.34973 24.589 3.79306C25.2738 3.23639 25.6162 3.05078 26.8146 3.05078C28.013 3.05078 28.3554 3.42193 29.7249 3.42193C31.0945 3.42193 32.1217 2.86524 32.9777 1.93742C33.8337 1.0096 34.7019 0.467075 35.5413 0.207125C36.7397 -0.164017 38.4528 0.00704155 39.1375 0.378169C39.8223 0.749296 40.5104 1.19517 40.8528 1.56629C41.1952 1.93742 41.6315 2.43083 42.3913 2.43083C43.4188 2.43083 43.4188 2.25978 44.4463 2.25978C45.377 2.25978 45.9878 2.38729 46.8438 2.94398C47.6998 3.50067 48.2143 3.23637 48.8991 3.79306C49.5838 4.34975 49.7551 4.92408 49.7551 5.8519C49.7551 6.77971 49.5837 7.90454 49.2413 7.90454C48.8989 7.90454 48.8988 6.05197 48.8988 5.68084C48.8988 5.30972 48.7715 4.58725 48.0426 4.31241C47.5284 4.1185 47.1859 4.19829 46.6735 4.1642C46.3301 4.14136 46.1587 3.82827 45.6451 3.45714C45.1708 3.1144 44.6397 3.11487 44.4573 3.11504L44.4463 3.11504C44.2751 3.11504 43.7613 3.11504 43.4188 3.2861C43.0745 3.45806 42.6256 3.79304 42.2224 3.79304C41.1926 3.79306 40.8499 3.3296 40.3363 2.77293C39.6304 2.00784 39.1369 1.40445 37.0825 1.40445C35.0282 1.40445 34.1761 2.49411 33.3201 3.42193C32.4641 4.34975 31.0945 4.72089 29.7249 4.72089C28.3554 4.72089 27.6706 3.97864 26.301 4.1642Z" fill="#F8F6F0"/>
<path d="M25.7971 5.84351C25.2905 6.00318 24.9048 5.37374 24.7839 5.52419C24.663 5.67464 24.9005 6.10653 25.4185 6.22901C25.9854 6.36302 26.4484 6.16251 26.6173 6.05805C26.8229 5.93084 27.1504 5.68081 27.1504 5.16771C27.1504 4.81067 26.5338 4.5985 26.2942 4.99664C26.0965 5.32524 26.2475 5.70156 25.7971 5.84351Z" fill="#F8F6F0"/>
<path d="M25.9482 6.82558C24.9732 6.93159 24.6396 6.76429 24.526 6.9238C24.4124 7.08331 24.6915 7.49576 25.4316 7.54133C26.2939 7.59442 26.8855 7.48143 27.4927 7.04931C28.0998 6.6172 28.5225 5.70159 28.3513 5.5314C28.2861 5.46655 28.1976 5.57971 27.6639 6.02341C27.0178 6.56066 26.2619 6.79148 25.9482 6.82558Z" fill="#F8F6F0"/>
<path d="M24.2389 15.773C24.2389 14.5292 23.9429 13.7203 23.7251 13.7203C23.3826 13.7203 23.3826 15.6019 23.5539 17.1414C23.7251 18.6809 24.9239 18.8519 25.6089 18.8519C26.9896 18.8519 29.2052 18.6809 30.5752 18.5098C31.9452 18.3388 37.5965 18.3388 39.309 18.3388C42.5627 18.3388 46.3303 18.8519 48.5565 18.8519C49.5847 18.8519 49.5842 18.0188 49.584 17.6682L49.584 17.6546V17.6545C49.584 17.3124 49.584 15.773 49.2415 15.773C48.899 15.773 49.0703 16.6282 49.0703 16.9704C49.0703 17.3125 48.899 17.6546 48.3853 17.8256C47.8715 17.9967 44.789 17.4835 42.2202 17.3125C39.6515 17.1414 32.4589 17.1414 30.5752 17.3125C28.6914 17.4835 26.8077 17.8256 25.6089 17.6546C24.4101 17.4835 24.2389 17.0168 24.2389 15.773Z" fill="#F8F6F0"/>
</svg>
